<svg style="fill-rule:evenodd;clip-rule:evenodd;stroke-linecap:round;stroke-linejoin:round"
	 xmlns="http://www.w3.org/2000/svg"
	 xml:space="preserve"
	 viewBox="0 0 1024 1024"><g fill="#703939"><path d="M731.812 251.188c-10.236-.001-20.47 3.908-28.281 11.718L263.906 702.531c-15.621 15.621-15.621 40.942 0 56.563 15.621 15.621 40.942 15.621 56.563 0l439.625-439.625c15.621-15.621 15.621-40.942 0-56.563-7.811-7.81-18.045-11.718-28.282-11.718Z"/><path d="M291.188 250.188c-10.237 0-20.471 3.908-28.282 11.718-15.621 15.621-15.621 40.942 0 56.563l439.625 439.625c15.621 15.621 40.942 15.621 56.563 0 15.621-15.621 15.621-40.942 0-56.563L319.469 261.906c-7.811-7.81-18.045-11.718-28.281-11.718Z"/></g></svg>
