<svg style="fill-rule:evenodd;clip-rule:evenodd;stroke-linecap:round;stroke-linejoin:round"
	 xmlns="http://www.w3.org/2000/svg"
	 xml:space="preserve"
	 viewBox="0 0 1024 1024"><path d="M434.281 238.844c-22.091 0-40 17.908-40 40 0 22.091 17.909 40 40 40h270.875v270.875c0 22.091 17.909 40 40 40 22.092 0 40-17.909 40-40V278.844c0-22.092-17.908-40-40-40H434.281ZM278.844 394.281c-22.092 0-40 17.909-40 40v310.875c0 22.092 17.908 40 40 40h310.875c22.091 0 40-17.908 40-40 0-22.091-17.909-40-40-40H318.844V434.281c0-22.091-17.909-40-40-40Z" fill="#703939"/></svg>
